<?xml version="1.0" encoding="utf-8"?>
<!-- Generator: Adobe Illustrator 23.0.3, SVG Export Plug-In . SVG Version: 6.00 Build 0)  -->
<svg version="1.1" id="Layer_1" xmlns="http://www.w3.org/2000/svg" xmlns:xlink="http://www.w3.org/1999/xlink" x="0px" y="0px"
	 viewBox="2.86 0.81 6137.76 2007.73" style="enable-background:new 2.86 0.81 6137.76 2007.73;" xml:space="preserve">
<style type="text/css">
	.st0{clip-path:url(#SVGID_2_);fill:url(#SVGID_3_);}
	.st1{clip-path:url(#SVGID_5_);fill:url(#SVGID_6_);}
	.st2{clip-path:url(#SVGID_8_);fill:url(#SVGID_9_);}
	.st3{clip-path:url(#SVGID_11_);fill:url(#SVGID_12_);}
	.st4{fill:#F9F9F9;}
	.st5{fill:#F9F9FA;}
</style>
<g>
	<path d="M6140.62,1737.2c0,149.83-121.45,271.34-271.26,271.34H274.18c-149.82,0.01-271.32-121.5-271.32-271.34V272.13
		c0-149.82,121.5-271.32,271.32-271.32h5595.17c149.81,0,271.26,121.5,271.26,271.32V1737.2H6140.62z"/>
	<g id="PLAY_2_">
		<g>
			<defs>
				<path id="SVGID_1_" d="M1332.99,884.57l-276.76-159.78c0,0-504.19-291.13-533.83-308.24c-29.64-17.11-59.17-6.74-59.17,29.02
					c0,59.58,0,621.6,0,621.6s0,607.38,0,634.21c0,26.81,21.11,38.36,46.86,23.51c25.74-14.88,546.14-315.35,546.14-315.35
					l276.74-159.77c0,0,234.82-135.56,266.03-153.58c31.21-18.04,28.21-42.76,1.87-56.94
					C1574.55,1025.05,1332.99,884.57,1332.99,884.57z"/>
			</defs>
			<clipPath id="SVGID_2_">
				<use xlink:href="#SVGID_1_"  style="overflow:visible;"/>
			</clipPath>
			
				<linearGradient id="SVGID_3_" gradientUnits="userSpaceOnUse" x1="1958.4736" y1="1575.5389" x2="1958.4736" y2="1462.236" gradientTransform="matrix(12 0 0 -12 -22695.6406 19293.8125)">
				<stop  offset="0" style="stop-color:#257CB0"/>
				<stop  offset="0.2863" style="stop-color:#4A93B5"/>
				<stop  offset="0.767" style="stop-color:#78BCBB"/>
				<stop  offset="1" style="stop-color:#89CFBD"/>
			</linearGradient>
			<polygon class="st0" points="463.24,387.35 463.24,1067.16 463.24,1746.98 1148.85,1067.17 			"/>
		</g>
		<g>
			<defs>
				<path id="SVGID_4_" d="M1332.99,884.57l-276.76-159.78c0,0-504.19-291.13-533.83-308.24c-29.64-17.11-59.17-6.74-59.17,29.02
					c0,59.58,0,621.6,0,621.6s0,607.38,0,634.21c0,26.81,21.11,38.36,46.86,23.51c25.74-14.88,546.14-315.35,546.14-315.35
					l276.74-159.77c0,0,234.82-135.56,266.03-153.58c31.21-18.04,28.21-42.76,1.87-56.94
					C1574.55,1025.05,1332.99,884.57,1332.99,884.57z"/>
			</defs>
			<clipPath id="SVGID_5_">
				<use xlink:href="#SVGID_4_"  style="overflow:visible;"/>
			</clipPath>
			
				<linearGradient id="SVGID_6_" gradientUnits="userSpaceOnUse" x1="1929.9066" y1="1547.4189" x2="2002.3856" y2="1547.4189" gradientTransform="matrix(12 0 0 -12 -22695.6406 19293.8125)">
				<stop  offset="0" style="stop-color:#52C1AD"/>
				<stop  offset="1" style="stop-color:#DEE89A"/>
			</linearGradient>
			<polygon class="st1" points="1332.99,884.57 1056.23,724.79 463.24,382.4 463.24,387.35 1148.85,1067.17 			"/>
		</g>
		<g>
			<defs>
				<path id="SVGID_7_" d="M1332.99,884.57l-276.76-159.78c0,0-504.19-291.13-533.83-308.24c-29.64-17.11-59.17-6.74-59.17,29.02
					c0,59.58,0,621.6,0,621.6s0,607.38,0,634.21c0,26.81,21.11,38.36,46.86,23.51c25.74-14.88,546.14-315.35,546.14-315.35
					l276.74-159.77c0,0,234.82-135.56,266.03-153.58c31.21-18.04,28.21-42.76,1.87-56.94
					C1574.55,1025.05,1332.99,884.57,1332.99,884.57z"/>
			</defs>
			<clipPath id="SVGID_8_">
				<use xlink:href="#SVGID_7_"  style="overflow:visible;"/>
			</clipPath>
			
				<linearGradient id="SVGID_9_" gradientUnits="userSpaceOnUse" x1="1966.1456" y1="1518.887" x2="1966.1456" y2="1461.824" gradientTransform="matrix(12 0 0 -12 -22695.6406 19293.8125)">
				<stop  offset="0" style="stop-color:#EC413D"/>
				<stop  offset="0.1668" style="stop-color:#DA4452"/>
				<stop  offset="0.5748" style="stop-color:#B0487A"/>
				<stop  offset="0.8619" style="stop-color:#954A92"/>
				<stop  offset="1" style="stop-color:#8A4A9D"/>
			</linearGradient>
			<polygon class="st2" points="463.24,1746.98 463.24,1751.93 1056.23,1409.53 1332.98,1249.75 1148.85,1067.17 			"/>
		</g>
		<g>
			<defs>
				<path id="SVGID_10_" d="M1332.99,884.57l-276.76-159.78c0,0-504.19-291.13-533.83-308.24c-29.64-17.11-59.17-6.74-59.17,29.02
					c0,59.58,0,621.6,0,621.6s0,607.38,0,634.21c0,26.81,21.11,38.36,46.86,23.51c25.74-14.88,546.14-315.35,546.14-315.35
					l276.74-159.77c0,0,234.82-135.56,266.03-153.58c31.21-18.04,28.21-42.76,1.87-56.94
					C1574.55,1025.05,1332.99,884.57,1332.99,884.57z"/>
			</defs>
			<clipPath id="SVGID_11_">
				<use xlink:href="#SVGID_10_"  style="overflow:visible;"/>
			</clipPath>
			
				<linearGradient id="SVGID_12_" gradientUnits="userSpaceOnUse" x1="2007.8911" y1="1534.1039" x2="2007.8911" y2="1503.672" gradientTransform="matrix(12 0 0 -12 -22695.6406 19293.8125)">
				<stop  offset="0" style="stop-color:#F58879"/>
				<stop  offset="0.1194" style="stop-color:#F69079"/>
				<stop  offset="0.7128" style="stop-color:#FCB877"/>
				<stop  offset="1" style="stop-color:#FEC874"/>
			</linearGradient>
			<polygon class="st3" points="1332.99,884.57 1148.85,1067.17 1332.98,1249.75 1649.26,1067.16 			"/>
		</g>
	</g>
	<path class="st4" d="M4779.56,1332.95c-25.75,0-49.25-4.75-70.52-14.24c-21.28-9.5-39.16-24.12-53.59-43.82h-4.32
		c2.88,23.09,4.32,44.98,4.32,65.65v162.71h-59.86V930.32h48.7l8.28,54.12h2.88c15.41-21.66,33.34-37.27,53.77-46.9
		c20.44-9.62,43.9-14.44,70.33-14.44c52.44,0,92.92,17.93,121.4,53.76c28.5,35.83,42.76,86.11,42.76,150.79
		c0,64.94-14.5,115.38-43.45,151.37C4871.27,1314.98,4831.05,1332.95,4779.56,1332.95z M4770.89,973.98
		c-40.4,0-69.62,11.2-87.66,33.55c-18.04,22.37-27.3,57.97-27.79,106.8v13.33c0,55.57,9.26,95.32,27.79,119.26
		c18.53,23.94,48.24,35.88,89.1,35.88c34.18,0,60.94-13.81,80.3-41.47c19.34-27.65,29.03-65.77,29.03-114.38
		c0-49.28-9.68-87.13-29.03-113.46C4833.28,987.13,4806.02,973.98,4770.89,973.98z"/>
	<path class="st4" d="M5082.38,1325.72h-59.88V764.36h59.88V1325.72z"/>
	<path class="st4" d="M5426.69,1325.72l-11.92-56.28h-2.88c-19.73,24.79-39.38,41.58-58.99,50.33c-19.6,8.8-44.08,13.18-73.4,13.18
		c-39.2,0-69.92-10.1-92.18-30.3c-22.26-20.2-33.37-48.92-33.37-86.22c0-79.84,63.86-121.69,191.57-125.56l67.13-2.17v-24.53
		c0-31.03-6.68-53.95-20.04-68.72c-13.33-14.81-34.72-22.2-64.03-22.2c-32.96,0-70.25,10.1-111.84,30.3l-18.41-45.82
		c19.5-10.58,40.82-18.88,64.06-24.89c23.21-6.01,46.46-9.02,69.8-9.02c47.14,0,82.07,10.45,104.81,31.38
		c22.72,20.93,34.08,54.48,34.08,100.67v269.84h-44.38V1325.72z M5291.4,1283.53c37.26,0,66.54-10.22,87.84-30.66
		c21.26-20.44,31.93-49.07,31.93-85.88v-35.71l-59.92,2.51c-47.62,1.72-81.92,9.08-103,22.22c-21.04,13.1-31.56,33.49-31.56,61.15
		c0,21.64,6.54,38.12,19.67,49.4C5249.49,1277.88,5267.81,1283.53,5291.4,1283.53z"/>
	<path class="st4" d="M5505.83,930.32h64.2l86.59,225.49c19,51.48,30.79,88.63,35.38,111.49h2.88c3.13-12.29,9.7-33.25,19.66-62.99
		c9.98-29.71,42.65-121.02,97.94-274h64.25l-169.94,450.25c-16.82,44.5-36.49,76.07-59,94.74c-22.48,18.62-50.09,27.92-82.76,27.92
		c-18.29,0-36.32-2.04-54.14-6.12v-47.98c13.22,2.88,28.03,4.33,44.39,4.33c41.14,0,70.45-23.09,88.03-69.28l22-56.27
		L5505.83,930.32z"/>
	<path class="st4" d="M3670.17,967.07c19.01,15.73,58.7,48.78,58.7,111.67c0,61.16-34.74,90.17-69.48,117.42
		c-10.75,10.74-23.16,22.36-23.16,40.57c0,18.16,12.4,28.09,21.53,35.54l29.78,23.11c36.38,30.61,69.43,58.75,69.43,115.84
		c0,77.74-75.26,156.28-217.49,156.28c-119.94,0-177.8-57.05-177.8-118.28c0-29.76,14.82-71.92,63.68-100.9
		c51.24-31.43,120.76-35.52,157.96-38.06c-11.62-14.87-24.82-30.59-24.82-56.18c0-14.04,4.15-22.32,8.27-32.29
		c-9.13,0.84-18.22,1.67-26.5,1.67c-87.64,0-137.26-65.34-137.26-129.82c0-38.05,17.39-80.26,52.91-110.82
		c47.16-38.87,103.39-45.5,148.09-45.5h170.33l-52.93,29.77h-51.25V967.07z M3611.43,1334.29c-6.61-0.86-10.76-0.86-19-0.86
		c-7.44,0-52.16,1.69-86.86,13.3c-18.19,6.56-71.14,26.41-71.14,85.16c0,58.69,57.1,100.93,145.6,100.93
		c79.34,0,121.57-38.12,121.57-89.35C3701.61,1401.2,3674.31,1378.97,3611.43,1334.29z M3635.43,1177.13
		c19-19.04,20.63-45.48,20.63-60.38c0-59.53-35.54-152.16-104.17-152.16c-21.53,0-44.66,10.74-57.9,27.3
		c-14.04,17.36-18.22,39.67-18.22,61.2c0,55.4,32.26,147.22,103.42,147.22C3599.86,1200.3,3622.14,1190.37,3635.43,1177.13z"/>
	<path class="st4" d="M3149.5,1321.05c-131.27,0-201.46-102.4-201.46-194.89c0-108.18,88.33-200.62,213.89-200.62
		c121.32,0,197.29,94.92,197.29,194.86C3359.24,1217.79,3284.13,1321.05,3149.5,1321.05z M3252.7,1254.18
		c19.85-26.45,24.8-59.46,24.8-91.69c0-72.68-34.68-211.38-137.08-211.38c-27.24,0-54.48,10.75-74.29,28.13
		c-32.21,28.86-38.02,65.21-38.02,100.75c0,81.68,40.46,216.24,140.4,216.24C3200.72,1296.23,3233.75,1280.57,3252.7,1254.18z"/>
	<path class="st4" d="M2701.96,1321.05c-131.29,0-201.49-102.4-201.49-194.89c0-108.18,88.37-200.62,213.89-200.62
		c121.36,0,197.32,94.92,197.32,194.86C2911.68,1217.79,2836.56,1321.05,2701.96,1321.05z M2805.18,1254.18
		c19.81-26.45,24.78-59.46,24.78-91.69c0-72.68-34.7-211.38-137.1-211.38c-27.23,0-54.49,10.75-74.29,28.13
		c-32.21,28.86-37.98,65.21-37.98,100.75c0,81.68,40.44,216.24,140.39,216.24C2753.19,1296.23,2786.2,1280.57,2805.18,1254.18z"/>
	<path class="st4" d="M2437.4,1308.11l-118.73,27.4c-48.17,7.49-91.32,14.08-136.96,14.08c-229.15,0-316.28-168.53-316.28-300.53
		c0-161.03,123.67-310.42,335.39-310.42c44.84,0,87.97,6.62,126.98,17.42c62.26,17.44,91.31,39,109.58,51.47l-68.93,65.58
		l-29.04,6.61l20.75-33.22c-28.21-27.37-79.73-78-177.65-78c-131.17,0-229.98,99.66-229.98,244.92
		c0,156.02,112.92,302.96,293.86,302.96c53.18,0,80.52-10.78,105.44-20.76v-133.62l-125.33,6.64l66.38-35.74h176l-21.56,20.75
		c-5.86,5-6.66,6.68-8.32,13.26c-0.86,7.49-1.64,31.58-1.64,39.88v101.32H2437.4z"/>
	<path class="st4" d="M3932.55,1284.2c-27.41-2.5-33.14-7.45-33.14-39.86v-9.14v-460.7c0.17-1.79,0.28-3.62,0.44-5.35
		c3.35-29.04,11.64-34.02,37.4-48.98H3818.5l-62.28,29.89h63.47v0.37l-0.05-0.3v485.09v27.42c0,16.57-3.28,19.09-22.39,43.97h146.95
		l30.72-18.22C3960.82,1286.66,3946.68,1285.86,3932.55,1284.2z"/>
	<path class="st4" d="M4270.35,1291.83c-9.04,4.96-18.11,10.75-27.14,14.84c-27.25,12.36-55.27,15.67-80.05,15.67
		c-26.32,0-67.57-1.7-109.66-32.17c-58.49-41.26-84.05-112.15-84.05-173.96c0-127.76,103.87-190.42,188.78-190.42
		c29.69,0,60.23,7.4,84.96,23.1c41.18,27.16,51.9,62.6,57.64,81.58l-193.69,78.35l-63.49,4.94
		c20.58,104.7,91.48,165.66,169.82,165.66c42.04,0,72.55-14.81,100.57-28.8L4270.35,1291.83z M4192.88,1046.12
		c15.64-5.75,23.88-10.72,23.88-22.25c0-32.95-37.08-70.9-81.64-70.9c-33.01,0-94.8,25.57-94.8,114.59
		c0,14.02,1.66,28.85,2.51,43.74L4192.88,1046.12z"/>
	<path class="st4" d="M4349.92,931.44v54.4h-6.61v-54.4h-18v-5.64h42.6v5.64H4349.92z"/>
	<path class="st4" d="M4424.08,985.83v-54.9h-0.3l-16.75,54.9h-5.17l-16.9-54.9h-0.22v54.9h-6V925.8h10.28l15.29,48.53h0.22
		l15.06-48.53h10.43v60.04H4424.08z"/>
	<path class="st5" d="M2030.31,576.99h-41.26c0-5.68-3.91-21.74-11.74-48.22h-59.56c-8.08,26.04-12.12,42.11-12.12,48.22h-38.8
		c0-3.35,10.03-30.85,30.1-82.5s30.1-80.1,30.1-85.33h48.73c0,4.9,9.08,32.93,27.26,84.11
		C2021.21,544.45,2030.31,572.35,2030.31,576.99z M1970.75,504.15c-14.7-44.34-22.04-68.32-22.04-71.93h-2.06
		c0,3.35-7.61,27.32-22.81,71.93H1970.75z"/>
	<path class="st5" d="M2196.53,576.99h-31.84c0-3.53-11.82-22.13-35.45-55.81c-24.74-35.5-38.84-59.76-42.28-72.83h-2.06
		c2.15,18.82,3.23,35.83,3.23,51.05c0,21.23,0.6,47.1,1.8,77.6h-31.72c1.28-26.64,1.93-55.9,1.93-87.78
		c0-31.37-0.65-58.06-1.93-80.05h38.28c0,4.56,10.61,22.74,31.84,54.53c22.6,33.77,35.58,56.68,38.93,68.71h1.93
		c-2.06-19.16-3.1-36.35-3.1-51.56c0-23.28-0.6-47.18-1.8-71.68h32.23c-1.21,21.31-1.8,48-1.8,80.05
		C2194.72,521.52,2195.32,550.77,2196.53,576.99z"/>
	<path class="st5" d="M2383.36,487.27c0,24.41-7.82,45.72-23.46,63.94c-15.65,18.23-37.56,27.32-65.75,27.32
		c-12.72,0-30.25-0.52-52.6-1.55c1.12-25.96,1.68-55.22,1.68-87.78c0-31.27-0.56-57.96-1.68-80.05h22.56c3.7,0,9.19-0.13,16.5-0.38
		c7.3-0.25,12.07-0.38,14.3-0.38c31.02,0,53.51,7.74,67.49,23.21C2376.38,447.06,2383.36,465.61,2383.36,487.27z M2348.18,492.81
		c0-16.5-4.81-30.4-14.44-41.71c-9.62-11.29-24.32-16.94-44.09-16.94c-3.7,0-8.76,0.38-15.22,1.16c0.85,17.2,1.28,35.15,1.28,53.88
		c0,20.54,0.43,40.91,1.28,61.1c5.58,1.12,11.17,1.68,16.75,1.68c18.48,0,32.16-5.75,41.05-17.22
		C2343.7,523.29,2348.18,509.31,2348.18,492.81z"/>
	<path class="st5" d="M2555.64,576.99h-38.16c-9.97-30.42-17.62-49.2-22.94-56.33c-5.33-7.14-13.92-10.7-25.78-10.7
		c-4.99,0-9.76,0.05-14.3,0.13c0,22.09,0.38,44.39,1.16,66.9h-35.83c1.12-25.96,1.68-55.22,1.68-87.78
		c0-31.27-0.56-57.96-1.68-80.05h22.3c2.58,0,7.97-0.13,16.18-0.38c8.21-0.25,15.79-0.38,22.75-0.38
		c39.44,0,59.17,13.49,59.17,40.48c0,21.4-11.26,36.3-33.77,44.74v1.93c8.68,2.4,16.28,9.18,22.81,20.29
		C2535.75,526.95,2544.56,547.34,2555.64,576.99z M2507.31,458.4c0-17.1-11-25.66-33-25.66c-8.08,0-15.22,0.6-21.4,1.8
		c0.95,13.32,1.42,30.68,1.42,52.08c4.73,0.18,8.72,0.25,11.99,0.25C2493.64,486.89,2507.31,477.39,2507.31,458.4z"/>
	<path class="st5" d="M2740.42,489.98c0,26.38-8.08,48.25-24.24,65.62c-16.16,17.35-36.14,26.04-59.94,26.04
		c-22.69,0-41.69-7.97-56.98-23.92c-15.3-15.94-22.94-36.2-22.94-60.77c0-26.38,8.08-48.25,24.24-65.62
		c16.15-17.35,36.13-26.04,59.94-26.04c22.69,0,41.68,7.94,56.98,23.84C2732.78,445.04,2740.42,465.31,2740.42,489.98z
		 M2704.85,493.71c0-17.96-4.6-32.53-13.79-43.7c-9.2-11.17-20.54-16.75-34.03-16.75c-12.55,0-23.21,5.63-31.97,16.88
		c-8.76,11.26-13.16,25.48-13.16,42.67c0,17.87,4.62,32.41,13.86,43.63c9.24,11.22,20.56,16.82,33.97,16.82
		c12.54,0,23.21-5.65,31.97-16.96C2700.46,525.02,2704.85,510.81,2704.85,493.71z"/>
	<path class="st5" d="M2813.31,576.99h-36.48c1.12-26.64,1.68-55.9,1.68-87.78c0-31.37-0.56-58.06-1.68-80.05h36.48
		c-1.12,21.66-1.68,48.34-1.68,80.05C2811.63,521.6,2812.19,550.87,2813.31,576.99z"/>
	<path class="st5" d="M3000.15,487.27c0,24.41-7.82,45.72-23.46,63.94c-15.65,18.23-37.56,27.32-65.75,27.32
		c-12.72,0-30.25-0.52-52.6-1.55c1.12-25.96,1.68-55.22,1.68-87.78c0-31.27-0.56-57.96-1.68-80.05h22.56c3.7,0,9.19-0.13,16.5-0.38
		c7.3-0.25,12.07-0.38,14.3-0.38c31.02,0,53.51,7.74,67.49,23.21C2993.16,447.06,3000.15,465.61,3000.15,487.27z M2964.96,492.81
		c0-16.5-4.81-30.4-14.44-41.71c-9.62-11.29-24.32-16.94-44.09-16.94c-3.7,0-8.76,0.38-15.22,1.16c0.85,17.2,1.28,35.15,1.28,53.88
		c0,20.54,0.43,40.91,1.28,61.1c5.58,1.12,11.17,1.68,16.75,1.68c18.48,0,32.16-5.75,41.05-17.22
		C2960.49,523.29,2964.96,509.31,2964.96,492.81z"/>
	<path class="st5" d="M3248.02,576.99h-41.26c0-5.68-3.91-21.74-11.75-48.22h-59.56c-8.08,26.04-12.12,42.11-12.12,48.22h-38.78
		c0-3.35,10.03-30.85,30.1-82.5s30.1-80.1,30.1-85.33h48.73c0,4.9,9.1,32.93,27.26,84.11
		C3238.91,544.45,3248.02,572.35,3248.02,576.99z M3188.46,504.15c-14.7-44.34-22.06-68.32-22.06-71.93h-2.06
		c0,3.35-7.6,27.32-22.8,71.93H3188.46z"/>
	<path class="st5" d="M3398.38,453.11c0,20.54-7.63,35.71-22.88,45.5c-15.25,9.79-33.96,14.7-56.14,14.7
		c-4.04,0-6.91-0.08-8.64-0.25c0,16.16,0.47,37.46,1.42,63.94h-36.23c1.12-24.83,1.68-54.1,1.68-87.78
		c0-30.94-0.56-57.62-1.68-80.05h22.43c3.18,0,9.28-0.13,18.3-0.38c9.02-0.25,16.84-0.38,23.46-0.38c16.32,0,30.12,3.7,41.38,11.09
		C3392.73,426.87,3398.38,438.07,3398.38,453.11z M3365.13,460.2c0-18.38-12.2-27.59-36.61-27.59c-6.11,0-12.55,0.65-19.33,1.93
		c0.95,16.25,1.42,34.63,1.42,55.18c2.15,0.18,4.64,0.25,7.48,0.25C3349.44,489.98,3365.13,480.06,3365.13,460.2z"/>
	<path class="st5" d="M3552.99,453.11c0,20.54-7.63,35.71-22.87,45.5c-15.25,9.79-33.97,14.7-56.15,14.7
		c-4.04,0-6.91-0.08-8.64-0.25c0,16.16,0.47,37.46,1.42,63.94h-36.23c1.12-24.83,1.68-54.1,1.68-87.78
		c0-30.94-0.56-57.62-1.68-80.05h22.43c3.18,0,9.28-0.13,18.3-0.38c9.02-0.25,16.84-0.38,23.46-0.38c16.32,0,30.12,3.7,41.38,11.09
		C3547.34,426.87,3552.99,438.07,3552.99,453.11z M3519.74,460.2c0-18.38-12.2-27.59-36.61-27.59c-6.11,0-12.55,0.65-19.33,1.93
		c0.95,16.25,1.42,34.63,1.42,55.18c2.15,0.18,4.64,0.25,7.48,0.25C3504.05,489.98,3519.74,480.06,3519.74,460.2z"/>
	<path class="st5" d="M3805.77,489.98c0,26.38-8.08,48.25-24.24,65.62c-16.16,17.36-36.14,26.04-59.94,26.04
		c-22.69,0-41.69-7.97-56.98-23.92c-15.29-15.94-22.94-36.2-22.94-60.77c0-26.38,8.08-48.25,24.24-65.62s36.14-26.04,59.94-26.04
		c22.69,0,41.69,7.94,56.98,23.84C3798.11,445.04,3805.77,465.31,3805.77,489.98z M3770.19,493.71c0-17.96-4.6-32.53-13.79-43.7
		s-20.54-16.75-34.03-16.75c-12.55,0-23.21,5.63-31.97,16.88c-8.76,11.26-13.15,25.48-13.15,42.67c0,17.87,4.62,32.41,13.86,43.63
		c9.24,11.22,20.56,16.82,33.96,16.82c12.55,0,23.21-5.65,31.97-16.96C3765.81,525.02,3770.19,510.81,3770.19,493.71z"/>
	<path class="st5" d="M3980.49,576.99h-31.84c0-3.53-11.81-22.13-35.45-55.81c-24.74-35.5-38.84-59.76-42.28-72.83h-2.06
		c2.15,18.82,3.23,35.83,3.23,51.05c0,21.23,0.6,47.1,1.8,77.6h-31.72c1.28-26.64,1.93-55.9,1.93-87.78
		c0-31.37-0.65-58.06-1.93-80.05h38.28c0,4.56,10.62,22.74,31.84,54.53c22.61,33.77,35.58,56.68,38.93,68.71h1.93
		c-2.06-19.16-3.1-36.35-3.1-51.56c0-23.28-0.6-47.18-1.8-71.68h32.23c-1.21,21.31-1.8,48-1.8,80.05
		C3978.69,521.52,3979.29,550.77,3980.49,576.99z"/>
</g>
</svg>
