<?xml version="1.0" encoding="utf-8"?>
<!-- Generator: Adobe Illustrator 23.0.3, SVG Export Plug-In . SVG Version: 6.00 Build 0)  -->
<svg version="1.1" id="svg2" xmlns="http://www.w3.org/2000/svg" xmlns:xlink="http://www.w3.org/1999/xlink" x="0px" y="0px"
	 viewBox="2.86 0.81 6137.76 2007.73" style="enable-background:new 2.86 0.81 6137.76 2007.73;" xml:space="preserve">
<style type="text/css">
	.st0{fill:#FFFFFF;}
</style>
<path id="path6" d="M6140.62,1737.2c0,149.83-121.45,271.34-271.26,271.34H274.18c-149.82,0.01-271.32-121.5-271.32-271.34V272.13
	c0-149.82,121.5-271.32,271.32-271.32h5595.17c149.81,0,271.26,121.5,271.26,271.32V1737.2H6140.62z"/>
<g id="g3447" transform="matrix(4.5575069,0,0,4.5575069,-19.224881,-4.506577)">
	<g id="g3449">
		<path id="path3451" class="st0" d="M315.76,226.71c-0.35-38.68,31.67-57.49,33.13-58.37c-18.13-26.44-46.24-30.05-56.11-30.34
			c-23.6-2.48-46.5,14.12-58.52,14.12c-12.26,0-30.78-13.88-50.74-13.48c-25.68,0.4-49.7,15.26-62.88,38.35
			c-27.19,47.08-6.91,116.26,19.14,154.31c13.03,18.64,28.26,39.44,48.19,38.71c19.5-0.8,26.78-12.43,50.32-12.43
			c23.32,0,30.16,12.43,50.48,11.96c20.93-0.34,34.1-18.72,46.68-37.52c15.06-21.36,21.11-42.4,21.35-43.48
			C356.31,288.39,316.16,273.07,315.76,226.71L315.76,226.71z"/>
		<path id="path3453" class="st0" d="M277.36,112.97c10.49-13.12,17.66-30.96,15.67-49.07c-15.18,0.67-34.16,10.5-45.1,23.33
			c-9.67,11.3-18.31,29.83-16.08,47.26C248.91,135.76,266.42,125.89,277.36,112.97L277.36,112.97z"/>
	</g>
</g>
<g id="g3455" transform="matrix(3.8274018,0,0,3.8274018,-9.6973212,-7.8135619)">
	<path id="path3457" class="st0" d="M616.62,355.8h-27.25l-14.93-46.91h-51.89l-14.22,46.91H481.8l51.41-159.7h31.75L616.62,355.8
		L616.62,355.8z M569.94,289.22l-13.5-41.7c-1.43-4.26-4.1-14.29-8.05-30.08h-0.48c-1.57,6.79-4.1,16.82-7.58,30.08l-13.26,41.7
		H569.94L569.94,289.22z"/>
	<path id="path3459" class="st0" d="M748.82,296.81c0,19.58-5.29,35.06-15.88,46.43c-9.48,10.12-21.25,15.17-35.3,15.17
		c-15.17,0-26.06-5.45-32.7-16.34h-0.48v60.66h-25.58V278.56c0-12.31-0.32-24.95-0.95-37.91h22.5l1.43,18.25h0.48
		c8.53-13.75,21.48-20.62,38.86-20.62c13.58,0,24.92,5.36,34,16.1C744.29,265.14,748.82,279.28,748.82,296.81L748.82,296.81z
		 M722.76,297.75c0-11.21-2.52-20.45-7.58-27.72c-5.53-7.58-12.96-11.38-22.27-11.38c-6.31,0-12.05,2.11-17.17,6.28
		c-5.14,4.2-8.5,9.68-10.07,16.48c-0.79,3.17-1.19,5.76-1.19,7.8v19.2c0,8.38,2.57,15.44,7.7,21.22c5.14,5.77,11.81,8.65,20.02,8.65
		c9.64,0,17.14-3.72,22.5-11.14C720.07,319.71,722.76,309.92,722.76,297.75L722.76,297.75z"/>
	<path id="path3461" class="st0" d="M881.26,296.81c0,19.58-5.29,35.06-15.89,46.43c-9.47,10.12-21.24,15.17-35.29,15.17
		c-15.17,0-26.06-5.45-32.69-16.34h-0.48v60.66h-25.58V278.56c0-12.31-0.32-24.95-0.95-37.91h22.5l1.43,18.25h0.48
		c8.52-13.75,21.47-20.62,38.86-20.62c13.57,0,24.91,5.36,34.01,16.1C876.72,265.14,881.27,279.28,881.26,296.81L881.26,296.81z
		 M855.2,297.75c0-11.21-2.53-20.45-7.6-27.72c-5.53-7.58-12.94-11.38-22.26-11.38c-6.32,0-12.05,2.11-17.18,6.28
		c-5.14,4.2-8.48,9.68-10.06,16.48c-0.78,3.17-1.19,5.76-1.19,7.8v19.2c0,8.38,2.57,15.44,7.68,21.22
		c5.14,5.76,11.81,8.65,20.04,8.65c9.64,0,17.14-3.72,22.5-11.14C852.51,319.71,855.2,309.92,855.2,297.75L855.2,297.75z"/>
	<path id="path3463" class="st0" d="M1029.34,311.02c0,13.58-4.72,24.64-14.18,33.17c-10.4,9.32-24.89,13.98-43.5,13.98
		c-17.18,0-30.96-3.31-41.39-9.95l5.93-21.32c11.23,6.79,23.56,10.2,36.98,10.2c9.64,0,17.14-2.18,22.52-6.53
		c5.36-4.34,8.04-10.18,8.04-17.45c0-6.48-2.21-11.94-6.64-16.37c-4.4-4.43-11.76-8.54-22.03-12.35
		c-27.96-10.43-41.93-25.7-41.93-45.79c0-13.13,4.9-23.89,14.7-32.27c9.77-8.39,22.8-12.58,39.1-12.58c14.53,0,26.6,2.53,36.24,7.58
		l-6.4,20.86c-9-4.9-19.18-7.34-30.56-7.34c-9,0-16.03,2.22-21.07,6.64c-4.26,3.95-6.4,8.76-6.4,14.46c0,6.31,2.44,11.53,7.33,15.64
		c4.26,3.79,12,7.9,23.23,12.32c13.74,5.53,23.83,12,30.32,19.42C1026.12,290.73,1029.35,299.98,1029.34,311.02L1029.34,311.02z"/>
	<path id="path3465" class="st0" d="M1113.93,259.85h-28.2v55.91c0,14.22,4.97,21.32,14.93,21.32c4.57,0,8.36-0.4,11.36-1.19
		l0.71,19.43c-5.04,1.88-11.68,2.83-19.9,2.83c-10.1,0-18-3.08-23.7-9.24c-5.68-6.17-8.53-16.51-8.53-31.04v-58.04h-16.8v-19.2h16.8
		v-21.08l25.13-7.58v28.67h28.2L1113.93,259.85L1113.93,259.85z"/>
	<path id="path3467" class="st0" d="M1241.17,297.28c0,17.7-5.06,32.23-15.17,43.6c-10.6,11.7-24.66,17.53-42.19,17.53
		c-16.9,0-30.35-5.6-40.38-16.81c-10.03-11.21-15.05-25.36-15.05-42.41c0-17.84,5.16-32.46,15.52-43.82
		c10.33-11.38,24.28-17.06,41.81-17.06c16.9,0,30.49,5.6,40.75,16.82C1236.27,266.01,1241.17,280.06,1241.17,297.28L1241.17,297.28z
		 M1214.63,298.11c0-10.62-2.27-19.73-6.86-27.32c-5.36-9.19-13.03-13.78-22.97-13.78c-10.28,0-18.1,4.6-23.46,13.78
		c-4.6,7.61-6.86,16.86-6.86,27.8c0,10.62,2.27,19.73,6.86,27.31c5.53,9.19,13.26,13.78,23.23,13.78c9.77,0,17.44-4.68,22.97-14.02
		C1212.25,317.92,1214.63,308.72,1214.63,298.11L1214.63,298.11z"/>
	<path id="path3469" class="st0" d="M1324.33,263.15c-2.53-0.47-5.23-0.71-8.06-0.71c-9,0-15.96,3.4-20.86,10.2
		c-4.26,6-6.4,13.58-6.4,22.74v60.42h-25.57l0.24-78.89c0-13.27-0.32-25.36-0.96-36.25h22.28l0.94,22.03h0.71
		c2.7-7.57,6.96-13.67,12.79-18.24c5.7-4.12,11.86-6.17,18.49-6.17c2.36,0,4.5,0.17,6.4,0.47V263.15L1324.33,263.15z"/>
	<path id="path3471" class="st0" d="M1438.75,292.78c0,4.58-0.3,8.45-0.94,11.6h-76.75c0.3,11.38,4.01,20.08,11.14,26.08
		c6.47,5.36,14.83,8.05,25.1,8.05c11.36,0,21.73-1.81,31.06-5.45l4.01,17.76c-10.9,4.75-23.76,7.12-38.6,7.12
		c-17.86,0-31.87-5.26-42.07-15.76c-10.18-10.5-15.28-24.6-15.28-42.29c0-17.36,4.74-31.82,14.23-43.36
		c9.94-12.31,23.36-18.47,40.26-18.47c16.6,0,29.16,6.16,37.69,18.47C1435.35,266.32,1438.75,278.42,1438.75,292.78L1438.75,292.78z
		 M1414.35,286.14c0.17-7.58-1.5-14.14-4.97-19.67c-4.43-7.12-11.23-10.67-20.39-10.67c-8.36,0-15.17,3.47-20.36,10.43
		c-4.26,5.53-6.79,12.17-7.57,19.9h53.29L1414.35,286.14z"/>
</g>
<g id="g3473" transform="matrix(2.1467581,0,0,2.1467581,61.549532,19.205041)">
	<g id="g3475">
		<path id="path3477" class="st0" d="M905.31,218.89c0,14.12-4.24,24.76-12.7,31.9c-7.84,6.59-18.97,9.89-33.4,9.89
			c-7.15,0-13.27-0.31-18.4-0.94v-77.17c6.68-1.08,13.88-1.63,21.66-1.63c13.74,0,24.1,2.99,31.08,8.96
			C901.39,196.66,905.31,206.32,905.31,218.89L905.31,218.89z M892.05,219.24c0-9.16-2.42-16.18-7.27-21.07
			c-4.85-4.88-11.93-7.33-21.25-7.33c-3.96,0-7.33,0.26-10.13,0.82v58.67c1.55,0.24,4.38,0.35,8.5,0.35
			c9.62,0,17.05-2.68,22.28-8.03C889.41,237.29,892.05,229.49,892.05,219.24L892.05,219.24z"/>
		<path id="path3479" class="st0" d="M975.62,231.23c0,8.7-2.48,15.83-7.45,21.42c-5.21,5.75-12.11,8.62-20.72,8.62
			c-8.3,0-14.92-2.75-19.85-8.27c-4.92-5.51-7.38-12.46-7.38-20.83c0-8.76,2.53-15.95,7.62-21.53s11.93-8.38,20.54-8.38
			c8.3,0,14.98,2.75,20.03,8.26C973.21,215.87,975.62,222.78,975.62,231.23z M962.58,231.64c0-5.22-1.13-9.7-3.37-13.43
			c-2.64-4.51-6.4-6.77-11.28-6.77c-5.05,0-8.89,2.26-11.53,6.77c-2.26,3.73-3.37,8.28-3.37,13.66c0,5.22,1.13,9.7,3.37,13.43
			c2.72,4.51,6.52,6.77,11.41,6.77c4.8,0,8.57-2.29,11.28-6.89C961.41,241.37,962.58,236.86,962.58,231.64L962.58,231.64z"/>
		<path id="path3481" class="st0" d="M1069.89,203.41l-17.7,56.57h-11.52l-7.33-24.56c-1.86-6.13-3.37-12.23-4.55-18.28h-0.23
			c-1.09,6.22-2.6,12.3-4.55,18.28l-7.79,24.56h-11.65l-16.64-56.57h12.92l6.4,26.89c1.55,6.36,2.82,12.42,3.84,18.16h0.23
			c0.94-4.73,2.48-10.75,4.67-18.04l8.03-27h10.25l7.69,26.42c1.86,6.44,3.37,12.65,4.54,18.62h0.35
			c0.85-5.82,2.14-12.02,3.84-18.62l6.86-26.42h12.35V203.41z"/>
		<path id="path3483" class="st0" d="M1135.09,259.98h-12.58v-32.4c0-9.98-3.79-14.98-11.4-14.98c-3.73,0-6.74,1.37-9.08,4.12
			c-2.32,2.75-3.49,5.99-3.49,9.7v33.55h-12.58v-40.39c0-4.97-0.16-10.36-0.46-16.19h11.05l0.59,8.84h0.35
			c1.46-2.75,3.65-5.02,6.52-6.83c3.41-2.11,7.22-3.18,11.4-3.18c5.28,0,9.67,1.7,13.16,5.12c4.34,4.19,6.52,10.44,6.52,18.74
			V259.98L1135.09,259.98z"/>
		<path id="path3485" class="st0" d="M1169.77,259.98h-12.56v-82.52h12.56V259.98L1169.77,259.98z"/>
		<path id="path3487" class="st0" d="M1243.81,231.23c0,8.7-2.48,15.83-7.45,21.42c-5.21,5.75-12.12,8.62-20.72,8.62
			c-8.32,0-14.93-2.75-19.85-8.27c-4.92-5.51-7.38-12.46-7.38-20.83c0-8.76,2.53-15.95,7.62-21.53c5.09-5.58,11.93-8.38,20.53-8.38
			c8.32,0,14.98,2.75,20.04,8.26C1241.4,215.87,1243.81,222.78,1243.81,231.23z M1230.75,231.64c0-5.22-1.13-9.7-3.37-13.43
			c-2.63-4.51-6.4-6.77-11.27-6.77c-5.06,0-8.9,2.26-11.53,6.77c-2.26,3.73-3.37,8.28-3.37,13.66c0,5.22,1.13,9.7,3.37,13.43
			c2.72,4.51,6.52,6.77,11.41,6.77c4.8,0,8.56-2.29,11.27-6.89C1229.6,241.37,1230.75,236.86,1230.75,231.64L1230.75,231.64z"/>
		<path id="path3489" class="st0" d="M1304.67,259.98h-11.29l-0.94-6.52h-0.35c-3.86,5.2-9.37,7.8-16.52,7.8
			c-5.34,0-9.66-1.72-12.91-5.12c-2.95-3.1-4.43-6.95-4.43-11.52c0-6.91,2.88-12.18,8.68-15.83c5.78-3.65,13.92-5.44,24.4-5.35
			v-1.06c0-7.45-3.91-11.17-11.75-11.17c-5.58,0-10.5,1.4-14.75,4.19l-2.56-8.26c5.26-3.25,11.75-4.88,19.4-4.88
			c14.78,0,22.2,7.8,22.2,23.4v20.83C1303.86,252.15,1304.13,256.65,1304.67,259.98L1304.67,259.98z M1291.62,240.54v-8.72
			c-13.87-0.24-20.81,3.56-20.81,11.4c0,2.95,0.79,5.16,2.41,6.64c1.62,1.48,3.68,2.21,6.14,2.21c2.76,0,5.34-0.88,7.69-2.62
			c2.36-1.75,3.82-3.97,4.36-6.7C1291.54,242.14,1291.62,241.39,1291.62,240.54L1291.62,240.54z"/>
		<path id="path3491" class="st0" d="M1376.13,259.98h-11.16l-0.59-9.08h-0.35c-3.56,6.91-9.64,10.37-18.17,10.37
			c-6.82,0-12.49-2.68-16.99-8.03s-6.74-12.3-6.74-20.83c0-9.16,2.44-16.57,7.33-22.24c4.74-5.28,10.55-7.92,17.46-7.92
			c7.6,0,12.91,2.56,15.94,7.68h0.24v-32.47h12.59v67.28C1375.69,250.25,1375.83,255.33,1376.13,259.98L1376.13,259.98z
			 M1363.1,236.13v-9.43c0-1.63-0.12-2.95-0.35-3.96c-0.71-3.02-2.23-5.57-4.55-7.62c-2.34-2.05-5.16-3.08-8.41-3.08
			c-4.69,0-8.36,1.86-11.06,5.59c-2.68,3.73-4.03,8.5-4.03,14.32c0,5.59,1.28,10.13,3.86,13.62c2.72,3.72,6.4,5.58,10.99,5.58
			c4.13,0,7.43-1.55,9.94-4.66C1361.91,243.61,1363.1,240.16,1363.1,236.13L1363.1,236.13z"/>
		<path id="path3493" class="st0" d="M1483.69,231.23c0,8.7-2.48,15.83-7.45,21.42c-5.21,5.75-12.1,8.62-20.72,8.62
			c-8.29,0-14.9-2.75-19.85-8.27c-4.92-5.51-7.38-12.46-7.38-20.83c0-8.76,2.53-15.95,7.62-21.53c5.09-5.58,11.93-8.38,20.56-8.38
			c8.29,0,14.98,2.75,20.02,8.26C1481.28,215.87,1483.69,222.78,1483.69,231.23z M1470.66,231.64c0-5.22-1.13-9.7-3.37-13.43
			c-2.65-4.51-6.4-6.77-11.29-6.77c-5.04,0-8.88,2.26-11.53,6.77c-2.26,3.73-3.37,8.28-3.37,13.66c0,5.22,1.13,9.7,3.37,13.43
			c2.72,4.51,6.52,6.77,11.41,6.77c4.8,0,8.58-2.29,11.29-6.89C1469.48,241.37,1470.66,236.86,1470.66,231.64L1470.66,231.64z"/>
		<path id="path3495" class="st0" d="M1551.31,259.98h-12.56v-32.4c0-9.98-3.79-14.98-11.41-14.98c-3.73,0-6.74,1.37-9.07,4.12
			s-3.49,5.99-3.49,9.7v33.55h-12.59v-40.39c0-4.97-0.14-10.36-0.44-16.19h11.04l0.59,8.84h0.35c1.48-2.75,3.66-5.02,6.52-6.83
			c3.42-2.11,7.22-3.18,11.41-3.18c5.27,0,9.66,1.7,13.15,5.12c4.36,4.19,6.52,10.44,6.52,18.74V259.98L1551.31,259.98z"/>
		<path id="path3497" class="st0" d="M1635.94,212.83h-13.85v27.48c0,6.98,2.46,10.48,7.33,10.48c2.26,0,4.13-0.19,5.6-0.59
			l0.32,9.54c-2.48,0.94-5.75,1.4-9.77,1.4c-4.97,0-8.83-1.51-11.63-4.54c-2.81-3.02-4.2-8.11-4.2-15.25v-28.52h-8.27v-9.42h8.27
			v-10.37l12.32-3.72v14.08h13.85v9.43L1635.94,212.83z"/>
		<path id="path3499" class="st0" d="M1702.52,259.98h-12.59v-32.16c0-10.14-3.79-15.22-11.39-15.22c-5.83,0-9.82,2.94-12,8.82
			c-0.37,1.24-0.59,2.75-0.59,4.52v34.02h-12.56v-82.51h12.56v34.09h0.24c3.96-6.2,9.64-9.3,16.99-9.3c5.21,0,9.52,1.7,12.94,5.12
			c4.26,4.26,6.4,10.6,6.4,18.97L1702.52,259.98L1702.52,259.98z"/>
		<path id="path3501" class="st0" d="M1771.2,229.02c0,2.26-0.17,4.15-0.47,5.7h-37.72c0.17,5.59,1.97,9.85,5.46,12.8
			c3.19,2.64,7.31,3.96,12.35,3.96c5.58,0,10.67-0.89,15.25-2.68l1.97,8.74c-5.36,2.33-11.68,3.49-18.98,3.49
			c-8.76,0-15.66-2.58-20.65-7.74c-5.02-5.16-7.5-12.08-7.5-20.77c0-8.53,2.32-15.64,6.98-21.3c4.87-6.05,11.46-9.07,19.78-9.07
			c8.14,0,14.32,3.02,18.49,9.07C1769.53,216.03,1771.2,221.97,1771.2,229.02L1771.2,229.02z M1759.2,225.77
			c0.1-3.73-0.73-6.95-2.44-9.66c-2.18-3.49-5.51-5.24-10.01-5.24c-4.1,0-7.45,1.7-10.01,5.12c-2.09,2.72-3.32,5.98-3.73,9.78
			L1759.2,225.77L1759.2,225.77z"/>
	</g>
</g>
</svg>
